<svg xmlns="http://www.w3.org/2000/svg" viewBox="0 0 64 64" role="img" aria-label="BB Systems">
  <rect width="64" height="64" rx="7" fill="#141210"/>
  <path d="M13 13v38" stroke="#D4703F" stroke-width="4"/>
  <path d="M21 16v32h10.5c7 0 11.5-3.4 11.5-9 0-4.3-2.5-7.2-6.7-8.1 3.3-1.2 5.2-3.6 5.2-7.2 0-5-4-7.7-10.5-7.7H21Zm7 5.7h9.5c3 0 4.7 1.1 4.7 3.4s-1.7 3.5-4.7 3.5H28v-6.9Zm0 12.3h10c3.5 0 5.4 1.4 5.4 4.1 0 2.6-1.9 4.1-5.4 4.1H28V34Z" fill="#F2EDE7"/>
  <path d="M13 9h18" stroke="#D4703F" stroke-width="2"/>
</svg>
